
<svg version="1.1" id="Layer_3_copy_xA0_Image_1_"
	 xmlns="http://www.w3.org/2000/svg" xmlns:xlink="http://www.w3.org/1999/xlink" x="0px" y="0px" width="938px" height="545.584px"
	 viewBox="-187.34 -359.46 938 545.584" enable-background="new -187.34 -359.46 938 545.584" xml:space="preserve">

	 <defs>
		<style>
	 .bkg{
	 opacity:none;
	 fill:#890000;
	 width:300px;
	 height:300px;

	 <!-- fill:black; -->
	 }
	 #face{
	 fill:#221d1d;
	 }
		#title{
		transition:all 3s linear;
				stroke-dasharray:1000;
				stroke-dashoffset:0;
			-webkit-animation:dash 2s linear forwards;
			-moz-animation:dash 2s linear forwards;
			-ms-animation:dash 2s linear forwards;
			-o-animation:dash 2s linear forwards;
			animation:dash 2s linear forwards;
			}

			@keyframes dash {
				from{
					 stroke-dashoffset:1000;
					 fill:none;
				}
				to{
					 stroke-dashoffset:0;
					 fill:#221d1d;
				}
			}

		</style>
	</defs>
<g id="logo">
	<path  class="bkg" width="100px" widthid="bkg" fill-rule="evenodd" clip-rule="evenodd" fill="#FE0000" d="M280.394,16.019
		c-9.513,0.472-20.108,0.046-30.572-1.31c-7.059-0.915-14.188-2.08-21.012-4.514c-4.539-1.621-9.232-2.829-13.88-4.135
		c-7.916-2.223-15.459-5.392-22.795-9.043c-4.476-2.228-8.935-4.494-13.315-6.93c-4.96-2.759-9.63-5.907-14.28-9.1
		c-5.196-3.569-10.495-7.053-15.309-11.097c-4.884-4.104-9.473-8.629-13.742-13.373c-3.947-4.384-8.148-8.535-11.68-13.342
		c-8.209-11.181-16.34-22.335-21.897-35.193c-3.882-8.981-7.523-17.948-10.031-27.476c-3.013-11.446-5.301-22.843-5.809-34.723
		c-0.266-6.231-0.686-12.48-0.436-18.688c0.331-8.211,0.884-16.474,2.224-24.568c1.207-7.295,3.186-14.536,5.572-21.545
		c3.734-10.976,8.01-21.725,13.708-31.945c5.229-9.376,11.135-18.26,17.767-26.585c8.132-10.209,17.654-19.265,27.634-27.613
		c7.876-6.589,16.715-12.112,25.498-17.506c5.828-3.578,12.354-6.004,18.489-9.101c8.702-4.394,18.062-7.097,27.267-9.994
		c6.692-2.107,13.73-3.474,20.844-4.381c4.567-0.583,9.131-1.732,13.807-2.082c12.303-0.92,24.565-1.799,36.939-0.572
		c5.931,0.588,12.024,0.202,17.844,1.569c5.708,1.343,11.582,1.619,17.248,3.35c3.78,1.156,7.68,2.032,11.519,3.092
		c9.461,2.612,18.715,5.873,27.479,10.13c11.728,5.696,22.973,12.244,33.537,20.103c9.034,6.722,17.368,14.118,25.24,22.032
		c6.948,6.984,13.063,14.729,18.696,22.886c6.029,8.731,11.225,17.863,15.583,27.5c1.563,3.458,3.278,6.894,4.374,10.507
		c2.752,9.073,5.813,18.012,7.548,27.442c1.469,7.983,1.882,15.954,2.831,23.924c1.105,9.304-0.02,18.443-0.317,27.627
		c-0.288,8.841-2.36,17.558-4.472,26.104c-1.313,5.316-2.867,10.713-4.883,15.865c-2.338,5.976-4.937,11.859-7.647,17.678
		c-4.347,9.336-10.167,17.783-16.05,26.205c-4.764,6.821-10.323,12.884-16.025,18.897c-3.977,4.197-8.063,8.256-12.439,12.004
		c-6.767,5.795-13.829,11.225-21.419,15.914c-5.215,3.223-10.661,6.101-15.686,9.592c-2.319,1.613-4.964,2.197-7.373,3.361
		c-8.114,3.919-16.411,7.479-25.203,9.84c-6.369,1.71-12.611,3.896-19.05,5.422C311.813,15.778,296.674,16.26,280.394,16.019z"/>
	<path id="face" fill-rule="evenodd" clip-rule="evenodd" fill="#FEFEFE" d="M219.078-116.022c-2.055-3.457-4.803-5.496-7.947-7.436
		c-5.049-3.114-6.615-8.726-7.75-14.209c-0.283-1.368-0.294-2.986-0.921-4.112c-2.375-4.262-1.757-8.856-2.163-13.391
		c-0.526-5.865-0.611-11.716-0.632-17.584c-0.016-4.907,0.484-9.704,1.867-14.474c0.606-2.089,0.802-4.421-0.646-6.828
		c-1.734-2.882-0.086-6.108,0.951-9.02c1.429-4.01,3.719-7.681,4.633-11.915c0.556-2.569,2.082-4.579,3.917-6.493
		c4.981-5.203,9.538-10.963,15.618-14.852c5.301-3.388,10.14-7.506,16.436-9.517c5.815-1.856,11.602-2.546,17.574-3.164
		c2.993-0.31,5.925-1.904,9.111-2.416c3.832-0.616,8.005,1.181,11.521-1.564c2.099,1.842,4.617,2.528,7.254,1.937
		c2.991-0.67,5.993-0.699,8.963-0.476c3.433,0.259,6.901,0.35,10.288,1.203c0.932,0.234,1.513,0.506,1.823,1.377
		c1.008,2.825,3.092,3.713,5.941,3.417c2.792-0.292,4.438,2.007,6.458,3.261c5.026,3.121,10.413,5.712,14.52,10.239
		c6.257,6.899,10.97,14.597,13.253,23.669c1.696,6.741,4.457,13.069,7.146,19.443c0.813,1.929,1.211,4.156,1.268,6.259
		c0.207,7.633,1.275,15.287-0.742,22.883c-1.564,5.898-2.675,11.865-3.473,17.967c-1.093,8.37-2.882,16.873-9.643,23.04
		c-0.663,0.605-1.715,1.265-2.479,1.155c-0.905-0.13-1.361-1.328-1.362-2.307c-0.009-3.064,0.254-6.129,1.521-8.946
		c0.361-0.805,0.607-1.529,0.589-2.358c-0.187-8.403-0.104-16.82,0.831-25.159c0.571-5.107-1.806-9.432-2.643-14.142
		c-0.395-2.222-0.938-4.678-0.814-6.663c0.303-4.94-2.058-9.188-2.51-13.868c-0.233-2.416-2.021-4.686-3.704-5.84
		c-4.161-2.857-8.056-6.456-13.448-7.144c-3.538-0.453-6.535,0.617-9.864,1.846c-6.672,2.462-12.343,6.675-18.724,9.61
		c-3.021,1.391-6.07,2.891-9.145,4.221c-4.399,1.902-8.487,0.244-12.517-1.596c-5.144-2.349-10.896-4.054-14.363-8.67
		c-2.358-3.141-5.149-4.785-8.522-6.147c-6.827-2.757-13.517-1.197-20.159,0.563c-3.583,0.949-8.474,8.967-8.647,13.694
		c-0.081,2.17-0.39,4.178-1.709,6.035c-0.652,0.918-1.053,2.202-1.095,3.338c-0.181,4.817-0.219,9.524-2.124,14.201
		c-1.752,4.302-0.884,9.132-0.852,13.734c0.034,4.899-0.822,9.926,2.132,14.447c1.387,2.123,0.06,4.881,1.046,7.022
		c1.834,3.982,1.366,8.78,4.56,12.292C220.258-118.843,220.21-117.404,219.078-116.022z M319.024-86.027
		c-1.202-3.531-3.025-5.726-6.244-7.116c-4.866-2.102-9.184-5.26-14.571-6.485c-2.27-0.516-3.634-0.614-5.872,0.163
		c-4.65,1.613-8.689,4.882-14.178,4.544c-3.829-0.234-6.722-2.26-10.104-3.226c-2.576-0.736-4.897-2.992-7.687-2.212
		c-4.617,1.291-9.257,2.711-13.595,4.711c-2.689,1.239-6.231,1.555-7.738,4.662c-1.624,3.352-3.117,6.779-3.242,10.639
		c-0.046,1.401-0.144,3.172-0.973,4.093c-1.557,1.73-1.555,3.763-1.04,5.391c1.274,4.034,1.611,8.401,3.152,12.184
		c2.387,5.855,2.697,12.028,3.703,18.001c0.92,5.459,4.012,8.819,7.859,11.337c1.716,1.123,4.5,1.454,5.801,3.332
		c1.159,1.674,2.694,2.374,4.212,2.178c3.715-0.481,5.812,1.474,7.521,4.208c0.94,1.504,1.884,1.745,3.763,1.633
		c4.11-0.245,8.268,0.299,12.407,0.499c1.669,0.08,3.338,0.344,4.295-1.702c0.659-1.41,2.016-1.933,3.641-1.779
		c1.058,0.1,2.126,0.124,3.072-0.671c4.645-3.896,9.632-7.084,15.89-7.705c0.813-0.081,1.457-0.822,1.728-1.692
		c1.664-5.369,3.339-10.734,4.974-16.112c0.542-1.787,0.734-3.72,1.511-5.389c2.685-5.757,4.736-11.662,5.146-18.322
		C321.972-75.891,320.748-80.956,319.024-86.027z M293.394-264.829c4.282-2.713,7.97-6.147,7.387-12.051
		c-0.063-0.641,0.297-1.37,0.593-1.996c3.333-7.018,3.255-14.353,2.444-21.875c-0.419-3.884-0.861-7.936,0.391-11.767
		c0.625-1.91-0.366-1.865-1.481-1.676c-0.891,0.151-1.678,0.884-2.569,1.07c-8.73,1.808-16.488,5.807-23.573,10.997
		c-6.081,4.453-10.56,10.412-13.996,17.141c-1.151,2.256-2.449,2.129-3.887-0.047c-0.971-1.465-1.374-3.106-1.908-4.71
		c-0.22-0.661-0.441-1.093-1.182-0.975c-0.217,0.033-0.601,0.252-0.588,0.302c0.866,3.269-0.412,6.655,0.269,9.766
		c0.371,1.689,1.221,3.488-0.142,4.374c-1.564,1.019-3.709,0.341-5.388-0.702c-3.437-2.138-6.953-3.767-11.185-3.746
		c-2.823,0.014-3.482,1.363-3.468,3.721c0.026,4.25,3.611,4.956,6.384,6.5c3.383,1.885,7.113,2.955,10.475,4.996
		c3.996,2.425,7.65,5.879,12.659,6.159c3.658,0.205,7.313-0.696,10.95-0.446C282.503-258.075,288.04-261.438,293.394-264.829z"/>
	<path class="bkg" id="bkg" fill-rule="evenodd" clip-rule="evenodd" fill="#FE0000" d="M260.26-90.337c1.984,0.256,4.991,1.077,8.052,1.842
		c5.879,1.47,11.792,0.195,17.746-0.876c6.921-1.246,14.088-2.718,20.881,1.191c5.463,3.143,7.498,9.783,4.518,15.385
		c-0.269,0.507-0.563,1.098-0.549,1.642c0.19,7.047-4.869,11.665-8.134,17.008c-2.182,3.569-7.011,3.663-10.43,1.188
		c-3.323-2.406-6.708-4.728-10.062-7.09c-0.584-0.411-1.483-0.716-1.688-1.272c-1.859-5.038-3.943-2.081-5.781-0.126
		c-4.018,4.275-9.242,6.676-14.235,9.443c-2.613,1.448-4.989,0.802-6.691-1.443c-3.235-4.263-6.564-8.504-9.289-13.091
		c-2.349-3.958-0.862-8.516,0.886-12.095c1.57-3.216,2.039-7.272,5.64-9.527C253.657-89.746,256.206-90.503,260.26-90.337z"/>
</g>
<path id="title" display="none" fill="none" stroke="#000000" stroke-width="2" stroke-miterlimit="10" d="M498.47,74.889h30.587
	l-15.187-37.275L498.47,74.889z M160.641,74.889h30.587l-15.188-37.275L160.641,74.889z M-122.493,28.903h-61.173v6.585h26.87
	v68.821h7.434V35.488h26.869V28.903z M-61.956,35.488h26.87v68.821h7.435V35.488h26.869v-6.585h-61.173V35.488z M17.909,68.942
	H54.76v-6.266H17.909V35.488h42.269v-6.585H10.474v75.406h50.659v-6.584H17.909V68.942z M111.258,72.973h16.779v12.534
	c-3.61,4.39-7.384,7.592-11.313,9.605c-3.929,2.021-8.051,3.033-12.37,3.033c-4.036,0-7.768-0.852-11.202-2.551
	c-3.434-1.693-6.422-3.979-8.971-6.848c-2.555-2.867-4.553-6.21-6.004-10.032c-1.451-3.826-2.18-7.86-2.18-12.108
	c0-4.036,0.637-7.945,1.913-11.733c1.273-3.789,3.099-7.15,5.47-10.089c2.372-2.934,5.235-5.29,8.604-7.059
	c3.357-1.771,7.131-2.656,11.309-2.656c5.027,0,9.521,1.098,13.486,3.293c3.966,2.195,7.188,5.629,9.665,10.302l5.735-3.823
	c-1.208-2.413-2.675-4.624-4.41-6.641c-1.735-2.019-3.787-3.752-6.159-5.204c-2.371-1.452-5.077-2.584-8.122-3.398
	c-3.045-0.814-6.409-1.225-10.09-1.225c-5.026,0-9.664,1.047-13.913,3.136c-4.247,2.088-7.93,4.885-11.044,8.39
	c-3.117,3.507-5.538,7.556-7.272,12.159c-1.739,4.603-2.605,9.417-2.605,14.444c0,4.813,0.886,9.506,2.656,14.071
	c1.765,4.57,4.222,8.653,7.378,12.266c3.149,3.611,6.868,6.515,11.15,8.711c4.285,2.192,8.978,3.292,14.075,3.292
	c9.135,0,17.206-3.86,24.215-11.578v11.042h6.267V67.238h-23.046V72.973z M179.226,28.903l31.331,75.406h-7.86l-9.771-23.578
	h-33.878l-9.665,23.578h-7.966l31.543-75.406H179.226z M258.454,80.521l-29.418-51.617h-7.646v75.406h7.434V42.392L256.33,90.29
	h4.354l27.508-47.898v61.917h7.435V28.903h-7.543L258.454,80.521z M314.532,104.31h7.432V28.903h-7.432V104.31z M367.944,104.31
	h7.436V28.903h-7.436V104.31z M431.348,80.521L401.93,28.903h-7.648v75.406h7.437V42.392l27.507,47.898h4.354l27.505-47.898v61.917
	h7.436V28.903h-7.539L431.348,80.521z M517.052,28.903l31.328,75.406h-7.86l-9.767-23.578H496.87l-9.664,23.578h-7.963
	l31.541-75.406H517.052z M594.16,72.973h16.78v12.534c-3.611,4.39-7.385,7.592-11.312,9.605c-3.933,2.021-8.055,3.033-12.372,3.033
	c-4.036,0-7.77-0.852-11.203-2.551c-3.434-1.693-6.423-3.979-8.971-6.848c-2.556-2.867-4.554-6.21-6.003-10.032
	c-1.452-3.826-2.182-7.86-2.182-12.108c0-4.036,0.639-7.945,1.913-11.733c1.273-3.789,3.101-7.15,5.473-10.089
	c2.373-2.934,5.235-5.29,8.603-7.059c3.358-1.771,7.129-2.656,11.307-2.656c5.029,0,9.522,1.098,13.489,3.293
	c3.964,2.195,7.186,5.629,9.664,10.302l5.734-3.823c-1.208-2.413-2.674-4.624-4.411-6.641c-1.732-2.019-3.786-3.752-6.157-5.204
	c-2.374-1.452-5.078-2.584-8.122-3.398c-3.045-0.814-6.408-1.225-10.09-1.225c-5.028,0-9.666,1.047-13.913,3.136
	c-4.246,2.088-7.929,4.885-11.045,8.39c-3.114,3.507-5.537,7.556-7.272,12.159c-1.739,4.603-2.605,9.417-2.605,14.444
	c0,4.813,0.886,9.506,2.657,14.071c1.764,4.57,4.224,8.653,7.379,12.266c3.15,3.611,6.867,6.515,11.152,8.711
	c4.281,2.192,8.976,3.292,14.072,3.292c9.134,0,17.204-3.86,24.215-11.578v11.042h6.265V67.238H594.16V72.973z M639.933,68.942
	h36.853v-6.266h-36.853V35.488h42.269v-6.585h-49.701v75.406h50.656v-6.584h-43.224V68.942z M745.18,76.069
	c-1.201-2.267-2.938-4.199-5.203-5.791c-2.267-1.593-5.008-2.923-8.227-3.986c-3.224-1.061-6.848-2.017-10.886-2.867
	c-3.611-0.778-6.747-1.558-9.402-2.336c-2.653-0.78-4.833-1.7-6.533-2.761c-1.698-1.066-2.953-2.321-3.768-3.774
	c-0.813-1.455-1.223-3.312-1.223-5.578c0-4.319,1.521-7.733,4.565-10.246c3.044-2.514,7.895-3.773,14.55-3.773
	c4.531,0,8.567,0.743,12.106,2.231c3.543,1.486,6.372,3.434,8.499,5.84l3.604-5.926c-3.185-2.761-6.74-4.905-10.671-6.429
	c-3.93-1.522-8.41-2.287-13.438-2.287c-3.97,0-7.576,0.482-10.834,1.438c-3.256,0.956-6.089,2.335-8.493,4.141
	c-2.413,1.807-4.271,4.072-5.58,6.798c-1.315,2.725-1.967,5.82-1.967,9.29c0,3.045,0.517,5.609,1.544,7.698
	c1.024,2.094,2.567,3.88,4.619,5.366c2.055,1.486,4.569,2.725,7.543,3.717c2.973,0.989,6.442,1.945,10.408,2.866
	c3.749,0.851,7.045,1.7,9.876,2.548c2.826,0.852,5.203,1.856,7.114,3.025c1.913,1.169,3.345,2.548,4.3,4.144
	c0.956,1.591,1.438,3.561,1.438,5.896c0,4.388-1.685,7.66-5.047,9.821c-3.363,2.165-8.059,3.243-14.071,3.243
	c-2.904,0-5.664-0.271-8.285-0.802c-2.618-0.53-5.077-1.274-7.379-2.23c-2.299-0.953-4.388-2.074-6.265-3.349
	c-1.877-1.273-3.484-2.619-4.831-4.036l-3.715,6.055c8.494,7.294,18.585,10.939,30.268,10.939c3.966,0,7.609-0.41,10.939-1.225
	c3.327-0.815,6.196-2.067,8.603-3.769c2.406-1.698,4.282-3.823,5.627-6.371c1.346-2.548,2.019-5.557,2.019-9.027
	C746.986,81.165,746.384,78.335,745.18,76.069z M-109.208,74.889h30.586l-15.188-37.275L-109.208,74.889z M-90.623,28.903
	l31.331,75.406h-7.86l-9.77-23.578h-33.879l-9.665,23.578h-7.965l31.542-75.406H-90.623z"/>
<path id="title" fill="none" stroke="#000000" stroke-width="2" stroke-miterlimit="10" d="M136.658,34.627v10.945h-17.425
	v39.459h-12.386V45.572H89.423V34.627H136.658z M172.299,85.031l-3.673-9.289h-24.267l-3.672,9.289h-13.105l22.322-50.404h13.897
	l22.25,50.404H172.299z M148.032,66.525h16.921l-8.496-21.169L148.032,66.525z M223.635,34.627v10.945h-17.426v39.459h-12.385
	V45.572h-17.426V34.627H223.635z M241.054,74.807h30.676v10.225H228.67V34.627h42.34v10.225h-29.955v9.577h27.074v9.361h-27.074
	V74.807z M277.125,48.596c0-9.577,4.465-13.969,13.97-13.969h23.186c9.505,0,13.97,4.392,13.97,13.969v3.384h-12.385v-1.224
	c0-4.32-1.513-5.905-5.904-5.905h-14.546c-4.393,0-5.904,1.584-5.904,5.905v18.433c0,4.321,1.512,5.905,5.904,5.905h14.978
	c4.393,0,5.904-1.584,5.904-5.905v-2.88h-12.961v-9.361h24.914v14.114c0,9.576-4.465,13.969-13.97,13.969h-23.186
	c-9.505,0-13.97-4.393-13.97-13.969V48.596z M374.471,85.031l-3.672-9.289h-24.267l-3.672,9.289h-13.105l22.322-50.404h13.896
	l22.25,50.404H374.471z M350.206,66.525h16.921l-8.497-21.169L350.206,66.525z M439.2,34.627h10.369v50.404h-11.521V54.645
	l-14.041,21.602h-6.48l-14.041-21.602v30.387h-11.521V34.627h10.873l18.218,28.73L439.2,34.627z M457.987,34.627h12.529v50.404
	h-12.529V34.627z M132.695,121.027h12.528v50.404h-12.528V121.027z M200.882,121.027h10.368v50.404h-11.521v-30.387l-14.041,21.602
	h-6.48l-14.042-21.602v30.387h-11.521v-50.404h10.873l18.218,28.73L200.882,121.027z M260.28,171.432l-3.673-9.289h-24.266
	l-3.672,9.289h-13.105l22.322-50.404h13.896l22.25,50.404H260.28z M236.013,152.926h16.922l-8.496-21.17L236.013,152.926z
	 M274.965,134.996c0-9.576,4.464-13.969,13.969-13.969h23.186c9.505,0,13.97,4.393,13.97,13.969v3.385h-12.385v-1.225
	c0-4.32-1.513-5.904-5.905-5.904h-14.545c-4.393,0-5.904,1.584-5.904,5.904v18.434c0,4.321,1.512,5.905,5.904,5.905h14.978
	c4.392,0,5.904-1.584,5.904-5.905v-2.88h-12.961v-9.36h24.914v14.113c0,9.576-4.465,13.969-13.97,13.969h-23.186
	c-9.505,0-13.969-4.393-13.969-13.969V134.996z M345.884,161.207h30.675v10.225h-43.06v-50.404h42.34v10.225h-29.955v9.577h27.075
	v9.36h-27.075V161.207z M381.955,155.878h11.952v1.944c0,2.952,1.08,4.032,4.033,4.032h17.281c2.952,0,4.032-1.08,4.032-4.032
	v-2.232c0-2.952-0.937-3.744-4.032-4.032l-21.746-2.016c-7.561-0.648-10.801-3.528-10.801-10.801v-6.913
	c0-7.488,3.384-10.801,10.801-10.801h26.354c7.416,0,10.801,3.313,10.801,10.801v3.889h-11.953v-1.08
	c0-2.952-1.08-4.032-4.032-4.032h-15.554c-2.952,0-4.032,1.08-4.032,4.032v0.936c0,2.952,0.937,3.744,4.032,4.032l21.746,2.017
	c7.561,0.648,10.801,3.528,10.801,10.801v8.209c0,7.488-3.384,10.801-10.801,10.801h-28.082c-7.417,0-10.801-3.313-10.801-10.801
	V155.878z"/>
</svg>
