 <svg version="1.1" id="Layer_1" xmlns="http://www.w3.org/2000/svg" xmlns:xlink="http://www.w3.org/1999/xlink" x="0px" y="0px"
	 width="400.25px" height="44px" viewBox="0 0 194.25 22" enable-background="new 0 0 194.25 22" xml:space="preserve">

	 	<defs>
		  <style>

        .logo{
          stroke-dasharray:1000;
          stroke-dashoffset:0;
        -webkit-animation:dash 5s linear forwards;
        -moz-animation:dash 5s linear forwards;
        -ms-animation:dash 5s linear forwards;
        -o-animation:dash 5s linear forwards;
        animation:dash 5s linear forwards;
        stroke-dashoffset:800;
        }

        @keyframes dash {
          from{stroke-dashoffset:800}
          to{stroke-dashoffset:0;}
        }

		  </style>
	 	</defs>


<g>
	<path class="logo" fill="none" stroke="#000000" stroke-width="0.25" stroke-miterlimit="10" d="M17.953,3.972H12.64V17.58h-1.47V3.972H5.857
		V2.67h12.096V3.972z"/>
	<path fill="none" stroke="#000000" stroke-width="0.25" stroke-miterlimit="10" d="M23.329,2.67h1.239l6.195,14.91h-1.554
		l-1.932-4.662h-6.699l-1.911,4.662h-1.575L23.329,2.67z M26.941,11.763l-3.003-7.371l-3.045,7.371H26.941z"/>
	<path fill="none" stroke="#000000" stroke-width="0.25" stroke-miterlimit="10" d="M42.019,3.972h-5.313V17.58h-1.47V3.972h-5.313
		V2.67h12.096V3.972z"/>
	<path fill="none" stroke="#000000" stroke-width="0.25" stroke-miterlimit="10" d="M54.262,16.278v1.302H44.245V2.67h9.828v1.302
		h-8.358v5.376h7.287v1.239h-7.287v5.691H54.262z"/>
	<path fill="none" stroke="#000000" stroke-width="0.25" stroke-miterlimit="10" d="M67.491,15.396
		c-1.386,1.526-2.982,2.289-4.788,2.289c-1.008,0-1.936-0.217-2.783-0.651s-1.582-1.008-2.205-1.722
		c-0.624-0.714-1.11-1.522-1.459-2.425c-0.35-0.903-0.525-1.831-0.525-2.783c0-0.994,0.171-1.946,0.515-2.856
		c0.343-0.91,0.822-1.711,1.438-2.404c0.616-0.693,1.344-1.246,2.184-1.659c0.84-0.413,1.757-0.62,2.751-0.62
		c0.728,0,1.393,0.081,1.995,0.242c0.602,0.161,1.137,0.385,1.606,0.672c0.469,0.287,0.875,0.63,1.218,1.029
		c0.343,0.399,0.633,0.836,0.872,1.313l-1.134,0.756c-0.49-0.924-1.127-1.603-1.911-2.037c-0.784-0.434-1.673-0.651-2.667-0.651
		c-0.826,0-1.572,0.175-2.236,0.525c-0.666,0.35-1.232,0.816-1.701,1.396c-0.469,0.581-0.83,1.246-1.082,1.995
		s-0.378,1.522-0.378,2.32c0,0.84,0.144,1.638,0.431,2.394c0.287,0.756,0.682,1.417,1.187,1.984
		c0.504,0.567,1.095,1.019,1.774,1.354c0.679,0.336,1.417,0.504,2.215,0.504c0.854,0,1.669-0.2,2.446-0.599
		c0.777-0.399,1.523-1.032,2.237-1.9v-2.478h-3.318v-1.134h4.557v7.329h-1.239V15.396z"/>
	<path fill="none" stroke="#000000" stroke-width="0.25" stroke-miterlimit="10" d="M76.374,2.67h1.239l6.195,14.91h-1.554
		l-1.932-4.662h-6.699l-1.911,4.662h-1.575L76.374,2.67z M79.986,11.763l-3.003-7.371l-3.045,7.371H79.986z"/>
	<path fill="none" stroke="#000000" stroke-width="0.25" stroke-miterlimit="10" d="M99.159,17.58V5.337l-5.439,9.471h-0.861
		l-5.439-9.471V17.58h-1.47V2.67h1.512l5.817,10.206L99.138,2.67h1.491v14.91H99.159z"/>
	<path fill="none" stroke="#000000" stroke-width="0.25" stroke-miterlimit="10" d="M104.367,17.58V2.67h1.47v14.91H104.367z"/>
	<path fill="none" stroke="#000000" stroke-width="0.25" stroke-miterlimit="10" d="M114.929,17.58V2.67h1.47v14.91H114.929z"/>
	<path fill="none" stroke="#000000" stroke-width="0.25" stroke-miterlimit="10" d="M133.346,17.58V5.337l-5.439,9.471h-0.861
		l-5.439-9.471V17.58h-1.47V2.67h1.512l5.817,10.206l5.859-10.206h1.491v14.91H133.346z"/>
	<path fill="none" stroke="#000000" stroke-width="0.25" stroke-miterlimit="10" d="M143.173,2.67h1.239l6.195,14.91h-1.554
		l-1.932-4.662h-6.699l-1.911,4.662h-1.575L143.173,2.67z M146.786,11.763l-3.003-7.371l-3.045,7.371H146.786z"/>
	<path fill="none" stroke="#000000" stroke-width="0.25" stroke-miterlimit="10" d="M162.977,15.396
		c-1.386,1.526-2.982,2.289-4.788,2.289c-1.008,0-1.936-0.217-2.783-0.651s-1.582-1.008-2.205-1.722
		c-0.624-0.714-1.11-1.522-1.459-2.425c-0.35-0.903-0.525-1.831-0.525-2.783c0-0.994,0.171-1.946,0.515-2.856
		c0.343-0.91,0.822-1.711,1.438-2.404c0.616-0.693,1.344-1.246,2.184-1.659c0.84-0.413,1.757-0.62,2.751-0.62
		c0.728,0,1.393,0.081,1.995,0.242c0.602,0.161,1.137,0.385,1.606,0.672c0.469,0.287,0.875,0.63,1.218,1.029
		c0.343,0.399,0.633,0.836,0.872,1.313l-1.134,0.756c-0.49-0.924-1.127-1.603-1.911-2.037c-0.784-0.434-1.673-0.651-2.667-0.651
		c-0.826,0-1.572,0.175-2.236,0.525c-0.666,0.35-1.232,0.816-1.701,1.396c-0.469,0.581-0.83,1.246-1.082,1.995
		s-0.378,1.522-0.378,2.32c0,0.84,0.144,1.638,0.431,2.394c0.287,0.756,0.682,1.417,1.187,1.984
		c0.504,0.567,1.095,1.019,1.774,1.354c0.679,0.336,1.417,0.504,2.215,0.504c0.854,0,1.669-0.2,2.446-0.599
		c0.777-0.399,1.523-1.032,2.237-1.9v-2.478h-3.318v-1.134h4.557v7.329h-1.239V15.396z"/>
	<path fill="" stroke="#000000" stroke-width="0.25" stroke-miterlimit="10" d="M177.257,16.278v1.302H167.24V2.67h9.828v1.302
		h-8.358v5.376h7.287v1.239h-7.287v5.691H177.257z"/>
	<path fill="none" stroke="#000000" stroke-width="0.25" stroke-miterlimit="10" d="M188.429,5.463
		c-0.42-0.476-0.98-0.861-1.68-1.155s-1.498-0.441-2.394-0.441c-1.316,0-2.275,0.249-2.877,0.746s-0.903,1.172-0.903,2.026
		c0,0.448,0.081,0.815,0.242,1.103c0.161,0.287,0.409,0.535,0.745,0.746c0.336,0.21,0.767,0.392,1.292,0.546
		c0.525,0.154,1.145,0.308,1.859,0.462c0.798,0.168,1.515,0.357,2.152,0.567c0.637,0.21,1.179,0.473,1.627,0.788
		c0.448,0.315,0.791,0.697,1.029,1.145c0.238,0.448,0.357,1.008,0.357,1.68c0,0.686-0.133,1.281-0.399,1.785
		s-0.637,0.924-1.113,1.26c-0.476,0.336-1.043,0.584-1.701,0.745c-0.658,0.161-1.379,0.242-2.163,0.242
		c-2.31,0-4.305-0.721-5.985-2.163l0.735-1.197c0.266,0.28,0.584,0.546,0.955,0.798s0.784,0.473,1.239,0.662
		c0.455,0.189,0.941,0.336,1.459,0.441c0.518,0.105,1.064,0.158,1.638,0.158c1.189,0,2.117-0.213,2.782-0.641
		c0.665-0.427,0.998-1.074,0.998-1.942c0-0.462-0.095-0.851-0.284-1.166s-0.472-0.588-0.85-0.819
		c-0.378-0.231-0.848-0.43-1.407-0.598c-0.56-0.168-1.211-0.336-1.953-0.504c-0.784-0.182-1.47-0.371-2.058-0.567
		c-0.588-0.196-1.085-0.441-1.491-0.735c-0.406-0.294-0.711-0.647-0.914-1.061c-0.203-0.413-0.305-0.92-0.305-1.522
		c0-0.686,0.129-1.298,0.389-1.837c0.259-0.539,0.626-0.987,1.103-1.344c0.476-0.357,1.036-0.63,1.68-0.819
		c0.644-0.189,1.357-0.284,2.142-0.284c0.994,0,1.88,0.151,2.657,0.452c0.777,0.301,1.48,0.725,2.11,1.271L188.429,5.463z"/>
</g>
</svg>
