<svg version="1.1" id="Layer_1" xmlns="http://www.w3.org/2000/svg" xmlns:xlink="http://www.w3.org/1999/xlink" x="0px" y="0px"
	 width="400.25px" height="44px" viewBox="0 0 400.25 44" enable-background="new 0 0 400.25 44" xml:space="preserve">
	 <defs>
	 	 <style>
	 	.bkg{
	 	opacity:none;
	 	fill:#890000;
		width:300px;
		height:300px;

	 	<!-- fill:black; -->
	 	}
	 	 #title{
	 	 transition:all 3s linear;
	 			 stroke-dasharray:1000;
	 			 stroke-dashoffset:0;
	 		 -webkit-animation:dash 3s linear forwards;
	 		 -moz-animation:dash 3s linear forwards;
	 		 -ms-animation:dash 3s linear forwards;
	 		 -o-animation:dash 3s linear forwards;
	 		 animation:dash 3s linear forwards;
	 		 }

	 		 @keyframes dash {
	 			 from{
	 					stroke-dashoffset:1000;
	 					fill:none;
	 			 }
	 			 to{
	 					stroke-dashoffset:0;
	 					fill:#221d1d;
	 			 }
	 		 }

	 	 </style>
	 </defs>
<path id="Tategami_images" fill="none" stroke="#000000" stroke-miterlimit="10" d="M53.751,8.784l6.006,14.741H47.661L53.751,8.784
	z M287.352,23.525h12.096l-6.006-14.741L287.352,23.525z M153.751,23.525h12.096l-6.006-14.741L153.751,23.525z M41.781,5.34H17.589
	v2.604h10.626V35.16h2.94V7.944h10.626V5.34z M55.011,5.34l12.39,29.82h-3.108l-3.864-9.324H47.031l-3.822,9.324h-3.15L52.533,5.34
	H55.011z M59.757,23.525L53.751,8.784l-6.09,14.741H59.757z M65.721,7.944h10.626V35.16h2.94V7.944h10.626V5.34H65.721V7.944z
	 M97.305,21.174h14.574v-2.478H97.305V7.944h16.716V5.34H94.365v29.82h20.034v-2.604H97.305V21.174z M134.221,22.768h6.636v4.957
	c-1.428,1.735-2.92,3.002-4.474,3.799c-1.554,0.799-3.184,1.199-4.892,1.199c-1.596,0-3.072-0.337-4.43-1.009
	c-1.358-0.67-2.54-1.573-3.548-2.708c-1.01-1.134-1.8-2.456-2.374-3.968c-0.574-1.513-0.862-3.108-0.862-4.788
	c0-1.596,0.252-3.142,0.756-4.64c0.504-1.498,1.226-2.828,2.164-3.99c0.938-1.16,2.07-2.092,3.402-2.792
	c1.328-0.7,2.82-1.05,4.472-1.05c1.988,0,3.766,0.434,5.334,1.302c1.568,0.868,2.842,2.226,3.822,4.074l2.268-1.512
	c-0.478-0.954-1.058-1.828-1.744-2.626c-0.686-0.798-1.498-1.484-2.436-2.058s-2.008-1.022-3.212-1.344
	c-1.204-0.322-2.534-0.484-3.99-0.484c-1.988,0-3.822,0.414-5.502,1.24c-1.68,0.826-3.136,1.932-4.368,3.318
	c-1.232,1.386-2.19,2.988-2.876,4.808c-0.688,1.82-1.03,3.724-1.03,5.712c0,1.904,0.35,3.76,1.05,5.565
	c0.698,1.807,1.67,3.422,2.918,4.851c1.246,1.428,2.716,2.576,4.41,3.444c1.694,0.867,3.55,1.302,5.566,1.302
	c3.612,0,6.804-1.526,9.576-4.578v4.366h2.478V20.5h-9.114V22.768z M161.101,5.34l12.39,29.82h-3.108l-3.864-9.324h-13.398
	l-3.822,9.324h-3.15l12.474-29.82H161.101z M165.847,23.525l-6.006-14.741l-6.09,14.741H165.847z M192.433,25.752L180.799,5.34
	h-3.024v29.82h2.94V10.674l10.878,18.942h1.722l10.878-18.942V35.16h2.939V5.34h-2.982L192.433,25.752z M214.609,35.16h2.939V5.34
	h-2.939V35.16z M235.732,35.16h2.94V5.34h-2.94V35.16z M260.807,25.752L249.173,5.34h-3.024v29.82h2.94V10.674l10.878,18.942h1.723
	l10.877-18.942V35.16h2.94V5.34h-2.981L260.807,25.752z M294.699,5.34l12.39,29.82h-3.108l-3.863-9.324h-13.398l-3.822,9.324h-3.149
	l12.474-29.82H294.699z M299.447,23.525l-6.006-14.741l-6.09,14.741H299.447z M325.193,22.768h6.636v4.957
	c-1.428,1.735-2.92,3.002-4.474,3.799c-1.555,0.799-3.185,1.199-4.893,1.199c-1.596,0-3.072-0.337-4.43-1.009
	c-1.358-0.67-2.54-1.573-3.548-2.708c-1.011-1.134-1.801-2.456-2.374-3.968c-0.574-1.513-0.862-3.108-0.862-4.788
	c0-1.596,0.252-3.142,0.756-4.64s1.227-2.828,2.164-3.99c0.938-1.16,2.07-2.092,3.402-2.792c1.328-0.7,2.819-1.05,4.472-1.05
	c1.988,0,3.766,0.434,5.334,1.302s2.842,2.226,3.822,4.074l2.268-1.512c-0.478-0.954-1.058-1.828-1.744-2.626
	c-0.686-0.798-1.498-1.484-2.436-2.058c-0.938-0.574-2.008-1.022-3.212-1.344c-1.204-0.322-2.534-0.484-3.99-0.484
	c-1.988,0-3.822,0.414-5.502,1.24c-1.68,0.826-3.136,1.932-4.368,3.318c-1.231,1.386-2.189,2.988-2.876,4.808
	c-0.688,1.82-1.03,3.724-1.03,5.712c0,1.904,0.351,3.76,1.051,5.565c0.697,1.807,1.67,3.422,2.918,4.851
	c1.246,1.428,2.716,2.576,4.41,3.444c1.693,0.867,3.55,1.302,5.565,1.302c3.612,0,6.804-1.526,9.576-4.578v4.366h2.478V20.5h-9.113
	V22.768z M343.295,21.174h14.574v-2.478h-14.574V7.944h16.716V5.34h-19.655v29.82h20.033v-2.604h-17.094V21.174z M384.917,23.992
	c-0.476-0.896-1.162-1.66-2.058-2.29c-0.896-0.63-1.98-1.156-3.254-1.576c-1.274-0.42-2.708-0.798-4.305-1.134
	c-1.428-0.308-2.668-0.616-3.718-0.924s-1.912-0.672-2.584-1.092c-0.672-0.422-1.168-0.918-1.49-1.492
	c-0.321-0.576-0.483-1.31-0.483-2.206c0-1.708,0.602-3.058,1.806-4.052c1.204-0.994,3.122-1.492,5.754-1.492
	c1.792,0,3.388,0.294,4.788,0.882c1.4,0.588,2.52,1.358,3.36,2.31l1.426-2.344c-1.26-1.092-2.666-1.94-4.22-2.542
	c-1.555-0.602-3.326-0.904-5.314-0.904c-1.57,0-2.996,0.19-4.284,0.568s-2.408,0.924-3.359,1.638
	c-0.954,0.714-1.688,1.61-2.206,2.688c-0.521,1.078-0.778,2.302-0.778,3.674c0,1.204,0.204,2.218,0.61,3.044
	c0.405,0.828,1.016,1.534,1.827,2.122c0.813,0.588,1.807,1.078,2.982,1.47c1.176,0.392,2.548,0.77,4.116,1.134
	c1.483,0.336,2.786,0.672,3.906,1.008c1.117,0.336,2.058,0.734,2.813,1.196c0.756,0.463,1.322,1.008,1.7,1.639
	c0.378,0.629,0.568,1.408,0.568,2.332c0,1.735-0.666,3.029-1.996,3.884c-1.33,0.856-3.187,1.282-5.564,1.282
	c-1.148,0-2.24-0.106-3.276-0.316c-1.035-0.21-2.008-0.504-2.918-0.882c-0.909-0.378-1.735-0.82-2.478-1.324
	s-1.378-1.036-1.91-1.597l-1.47,2.395c3.359,2.885,7.35,4.326,11.97,4.326c1.568,0,3.01-0.162,4.326-0.484s2.45-0.817,3.402-1.49
	c0.951-0.672,1.693-1.512,2.226-2.52s0.798-2.197,0.798-3.57C385.631,26.008,385.393,24.889,384.917,23.992z"/>
</svg>
