<?xml version="1.0" encoding="utf-8"?>
<!-- Generator: Adobe Illustrator 16.0.0, SVG Export Plug-In . SVG Version: 6.00 Build 0)  -->
<!DOCTYPE svg PUBLIC "-//W3C//DTD SVG 1.1//EN" "http://www.w3.org/Graphics/SVG/1.1/DTD/svg11.dtd">
<svg version="1.1" id="Layer_3_copy_xA0_Image_1_" opacity="0.522"
	 xmlns="http://www.w3.org/2000/svg" xmlns:xlink="http://www.w3.org/1999/xlink" x="0px" y="0px" width="130.32px"
	 height="130.08px" viewBox="0 0 130.32 130.08" enable-background="new 0 0 130.32 130.08" xml:space="preserve">
<g>
	<path fill-rule="evenodd" clip-rule="evenodd" fill="#FE0000" d="M0.24,68.88c0-2.399,0-4.8,0-7.2
		c0.469-0.27,0.188-0.712,0.231-1.071c0.113-0.942,0.008-1.886,0.125-2.845c0.209-1.706,0.373-3.416,0.857-5.065
		c0.361-1.229,0.514-2.505,0.828-3.742c0.575-2.262,1.389-4.433,2.028-6.663c0.394-1.375,0.944-2.711,1.551-3.959
		c1.617-3.326,3.29-6.64,5.456-9.67c1.731-2.422,3.437-4.859,5.532-6.992c0.858-0.875,1.755-1.715,2.569-2.63
		c1.541-1.733,3.238-3.336,5.079-4.69c2.442-1.795,4.875-3.618,7.55-5.12c2.009-1.128,4.058-2.169,6.1-3.225
		c2.551-1.319,5.318-2.133,8.016-3.063c2.612-0.901,5.361-1.465,8.092-1.942c2.006-0.35,4.056-0.591,6.116-0.534
		c0.275,0.008,0.653,0.199,0.83-0.228c2.8,0,5.6,0,8.399,0c0.096,0.33,0.375,0.237,0.591,0.235c2.959-0.021,5.826,0.537,8.714,1.14
		c2.391,0.499,4.714,1.163,7.049,1.844c1.493,0.436,2.917,1.033,4.362,1.566c2.445,0.901,4.781,2.08,7.038,3.388
		c1.876,1.088,3.75,2.194,5.53,3.428c1.601,1.109,3.055,2.428,4.607,3.609c1.751,1.332,3.277,2.915,4.795,4.477
		c3.059,3.144,5.829,6.53,8.127,10.303c0.965,1.585,1.992,3.131,2.806,4.802c0.892,1.833,1.837,3.621,2.452,5.61
		c0.3,0.971,0.884,2.033,1.251,3.05c0.849,2.351,1.647,4.739,2.077,7.214c0.377,2.178,0.909,4.322,1.132,6.538
		c0.164,1.63-0.039,3.274,0.236,4.862c0.331,1.914,0.318,3.837,0.134,5.707c-0.313,3.149-0.164,6.352-1.099,9.452
		c-0.408,1.358-0.558,2.799-0.918,4.199c-0.59,2.296-1.291,4.539-2.01,6.792c-0.414,1.3-1.035,2.508-1.53,3.758
		c-0.968,2.442-2.244,4.772-3.689,6.991c-1.117,1.713-2.079,3.541-3.328,5.149c-1.677,2.161-3.554,4.166-5.361,6.224
		c-0.945,1.075-1.921,2.192-3.013,3.046c-1.774,1.388-3.414,2.942-5.265,4.241c-1.328,0.932-2.653,1.943-4.014,2.746
		c-1.536,0.906-3.147,1.81-4.764,2.626c-2.434,1.23-4.887,2.461-7.415,3.398c-3.351,1.244-6.855,2.121-10.35,2.911
		c-1.82,0.411-3.736,0.548-5.635,0.547c-0.354,0-0.802-0.243-1.071,0.227c-3.76,0-7.52,0-11.28,0
		c-0.096-0.331-0.375-0.237-0.591-0.235c-2.889,0.016-5.691-0.504-8.5-1.155c-2.139-0.495-4.209-1.15-6.282-1.849
		c-2.494-0.841-5.022-1.548-7.291-2.974c-1.245-0.781-2.675-1.261-3.972-1.968c-1.507-0.821-3.055-1.618-4.412-2.651
		c-1.572-1.198-3.181-2.351-4.727-3.582c-0.938-0.747-1.963-1.453-2.77-2.284c-2.413-2.484-4.901-4.909-7.06-7.641
		c-1.516-1.917-2.952-3.918-4.226-5.967c-1.486-2.391-2.997-4.83-4.019-7.493c-0.812-2.115-1.682-4.207-2.449-6.342
		c-1.115-3.102-1.664-6.342-2.427-9.521c-0.508-2.113-0.608-4.369-0.572-6.589C0.469,69.683,0.732,69.194,0.24,68.88z
		 M44.581,83.327c0.1-0.032,0.2-0.064,0.3-0.097c-0.019-0.423,0.134-1.049-0.085-1.234c-1.148-0.974-0.743-2.456-1.296-3.634
		c-0.615-1.307-0.496-2.858-0.943-4.303c-0.793-2.56-0.186-5.293-0.312-7.949c-0.001-0.04-0.001-0.083,0.013-0.119
		c0.701-1.74,1.055-3.534,0.961-5.422c-0.027-0.531-0.004-1.206,0.292-1.58c0.582-0.735,0.619-1.518,0.662-2.362
		c0.029-0.581,0.031-1.226,0.283-1.722c1.206-2.384,3.241-3.525,5.863-3.803c1.396-0.148,2.595,0.5,3.874,0.792
		c0.454,0.104,0.95,0.526,1.401,0.845c0.917,0.65,1.221,1.753,2.203,2.371c1.609,1.013,3.338,1.729,5.056,2.478
		c1.801,0.785,3.361-0.324,4.833-1.035c0.78-0.377,1.61-0.853,2.39-1.322c1.554-0.934,3.032-2,4.775-2.643
		c1.083-0.399,2.021-0.822,3.257-0.603c1.733,0.309,2.914,1.521,4.288,2.367c0.634,0.391,1.249,1.351,1.341,2.264
		c0.167,1.672,0.949,3.213,0.832,4.976c-0.046,0.68,0.029,1.542,0.285,2.308c0.717,2.143,1.094,4.367,0.803,6.616
		c-0.323,2.504-0.149,5.005-0.219,7.507c-0.006,0.195,0.022,0.437-0.077,0.578c-0.72,1.015-0.507,2.2-0.617,3.319
		c-0.026,0.269,0.147,0.724,0.35,0.809c0.311,0.132,0.713-0.114,0.904-0.394c0.464-0.679,1.182-1.296,1.411-1.978
		c0.268-0.796,1.227-1.175,1.131-2.022c-0.213-1.883,0.782-3.559,0.812-5.423c0.017-1.051-0.016-2.221,0.432-3.235
		c0.695-1.575,0.957-3.208,0.94-4.91c-0.013-1.359-0.027-2.72,0.003-4.079c0.05-2.203-0.795-4.251-1.587-6.165
		c-0.491-1.188-0.774-2.454-1.214-3.642c-0.489-1.323-0.668-2.775-1.381-4.05c-0.945-1.689-1.83-3.389-3.126-4.882
		c-0.956-1.102-2.107-1.942-3.281-2.627c-1.426-0.832-2.563-2.393-4.544-2.158c-0.46,0.055-0.773-0.442-0.947-0.893
		c-0.173-0.452-0.377-0.707-0.968-0.792c-2.021-0.292-4.006-0.676-6.072-0.242c-0.681,0.144-1.583,0.362-2.121-0.527
		c-0.135-0.222-0.459-0.241-0.625-0.046c-0.476,0.562-1.106,0.403-1.671,0.362c-1.201-0.087-2.612-0.133-3.479,0.393
		c-1.657,1.004-3.447,0.371-5.132,0.953c-1.229,0.424-2.454,0.862-3.647,1.385c-1.185,0.519-2.083,1.47-3.153,2.146
		c-1.228,0.776-2.17,1.86-3.325,2.706c-1.069,0.782-1.502,2.144-2.549,2.985c-0.884,0.71-1.312,1.713-1.594,2.797
		c-0.137,0.526-0.313,1.054-0.494,1.567c-0.608,1.727-1.897,3.452-1.326,5.296c0.425,1.369,0.271,2.462-0.009,3.751
		c-0.186,0.853-0.286,1.78-0.329,2.687c-0.162,3.468,0.339,6.918,0.25,10.383c-0.004,0.159-0.047,0.363,0.032,0.472
		c1.13,1.544,0.757,3.532,1.583,5.208c0.524,1.064,0.875,2.245,1.894,2.853C43.061,81.291,44.009,82.088,44.581,83.327z
		 M49.291,98.876c0.792,1.621,0.834,3.47,1.493,5.199c0.66,1.733,0.64,3.664,0.975,5.496c0.601,3.285,0.688,3.111,3.501,4.706
		c0.115,0.065,0.14,0.304,0.254,0.355c0.859,0.382,1.166,1.683,2.319,1.51c1.272-0.191,1.907,0.505,2.409,1.482
		c0.149,0.291,0.515,0.714,0.627,0.634c1.166-0.839,2.313,0.275,3.586-0.038c1.109-0.272,2.396,0.248,3.166-1.075
		c1.27,0.368,1.934-0.643,2.755-1.246c0.51-0.376,0.93-0.794,1.658-0.745c0.261,0.018,0.796-0.171,0.844-0.536
		c0.124-0.93,0.779-0.708,1.214-0.519c0.642,0.281,0.935-0.225,0.953-0.504c0.043-0.618,0.375-1.09,0.538-1.635
		c0.784-2.618,1.319-5.313,2.346-7.855c0.685-1.693,1.071-3.441,1.008-5.245c-0.068-1.913-0.735-3.717-1.311-5.527
		c-0.156-0.489-0.395-0.846-0.819-1.203c-1.331-1.121-3.038-1.563-4.407-2.598c-0.529-0.4-1.316-0.092-1.878-0.674
		c-0.181-0.187-0.909-0.041-1.464,0.211c-1.594,0.727-3.03,1.868-5.015,1.708c-1.314-0.105-2.219-0.946-3.373-1.244
		c-0.832-0.216-1.525-1.027-2.496-0.645c-1.393,0.55-2.864,0.889-4.204,1.586c-1.163,0.605-2.621,0.86-3.045,2.351
		c-0.212,0.741-0.678,1.398-0.662,2.221C50.291,96.353,49.725,97.541,49.291,98.876z M73.146,12.734c-0.378,0-0.729-0.11-0.92,0.018
		c-1.177,0.785-2.592,0.983-3.86,1.547c-1.624,0.722-3.143,1.567-4.49,2.64c-2.134,1.7-3.758,3.871-4.83,6.411
		c-0.291,0.69-1.065,0.498-1.109,0.229c-0.079-0.479-0.574-0.681-0.563-1.237c0.006-0.29,0.031-1.228-0.677-1.149
		c-0.276,0.031-0.057,0.783-0.037,1.191c0.049,1.005-0.213,1.998,0.175,3.03c0.295,0.788-0.37,1.262-1.272,0.915
		c-0.954-0.367-1.856-0.878-2.761-1.362c-0.855-0.457-1.872-0.475-2.558-0.074c-0.591,0.345-0.416,1.335-0.091,2.068
		c0.365,0.825,1.225,0.942,1.872,1.352c1.109,0.701,2.387,1.05,3.504,1.807c1.324,0.896,2.579,2.116,4.308,2.186
		c1.367,0.055,2.748-0.188,4.113-0.117c1.507,0.078,2.849-0.229,4.125-1.02c0.369-0.229,0.734-0.509,1.064-0.749
		c1.135-0.826,2.372-1.645,2.605-3.241c0.09-0.615-0.086-1.226,0.207-1.857c1.14-2.458,1.085-5.051,0.852-7.691
		C72.661,16.038,72.395,14.388,73.146,12.734z"/>
	<path fill-rule="evenodd" clip-rule="evenodd" fill="#FEFEFE" d="M71.04,130.32c0.27-0.47,0.718-0.227,1.071-0.227
		c1.898,0.001,3.814-0.136,5.635-0.547c3.494-0.79,6.999-1.667,10.35-2.911c2.528-0.938,4.981-2.168,7.415-3.398
		c1.616-0.816,3.228-1.72,4.764-2.626c1.36-0.803,2.686-1.814,4.014-2.746c1.851-1.299,3.49-2.854,5.265-4.241
		c1.092-0.854,2.067-1.971,3.013-3.046c1.808-2.058,3.685-4.063,5.361-6.224c1.249-1.608,2.211-3.437,3.328-5.149
		c1.445-2.219,2.722-4.549,3.689-6.991c0.495-1.25,1.116-2.458,1.53-3.758c0.719-2.253,1.42-4.496,2.01-6.792
		c0.36-1.4,0.51-2.841,0.918-4.199c0.935-3.101,0.786-6.303,1.099-9.452c0.185-1.87,0.197-3.793-0.134-5.707
		c-0.275-1.587-0.072-3.232-0.236-4.862c-0.223-2.216-0.755-4.36-1.132-6.538c-0.43-2.475-1.229-4.864-2.077-7.214
		c-0.367-1.017-0.951-2.079-1.251-3.05c-0.615-1.989-1.561-3.777-2.452-5.61c-0.813-1.671-1.841-3.216-2.806-4.802
		c-2.298-3.773-5.068-7.16-8.127-10.303c-1.518-1.562-3.044-3.145-4.795-4.477c-1.553-1.182-3.007-2.5-4.607-3.609
		c-1.78-1.234-3.654-2.34-5.53-3.428c-2.257-1.309-4.593-2.487-7.038-3.388c-1.445-0.533-2.869-1.13-4.362-1.566
		c-2.335-0.681-4.658-1.345-7.049-1.844c-2.888-0.603-5.755-1.16-8.714-1.14C69.975,0.477,69.695,0.57,69.6,0.24
		c20.071,0,40.142,0.004,60.212-0.019c0.759-0.001,1.015,0.067,1.015,0.949c-0.03,42.74-0.03,85.479,0,128.219
		c0,0.879-0.254,0.95-1.015,0.949C110.222,130.315,90.631,130.32,71.04,130.32z"/>
	<path fill-rule="evenodd" clip-rule="evenodd" fill="#FEFEFE" d="M61.2,0.24c-0.177,0.427-0.555,0.236-0.83,0.228
		c-2.06-0.058-4.11,0.184-6.116,0.534c-2.73,0.477-5.479,1.041-8.092,1.942c-2.698,0.93-5.465,1.744-8.016,3.063
		c-2.042,1.056-4.09,2.097-6.1,3.225c-2.675,1.502-5.108,3.325-7.55,5.12c-1.841,1.354-3.538,2.958-5.079,4.69
		c-0.813,0.915-1.71,1.755-2.569,2.63c-2.095,2.132-3.8,4.57-5.532,6.992c-2.166,3.03-3.839,6.345-5.456,9.67
		c-0.607,1.248-1.158,2.585-1.551,3.959c-0.639,2.23-1.453,4.401-2.028,6.663c-0.314,1.237-0.466,2.514-0.828,3.742
		c-0.484,1.649-0.648,3.359-0.857,5.065c-0.117,0.959-0.013,1.903-0.125,2.845c-0.043,0.359,0.237,0.802-0.231,1.071
		c0-20.16,0.006-40.32-0.023-60.48C0.216,0.378,0.378,0.216,1.2,0.217C21.2,0.247,41.2,0.24,61.2,0.24z"/>
	<path fill-rule="evenodd" clip-rule="evenodd" fill="#FEFEFE" d="M0.24,68.88c0.492,0.314,0.229,0.803,0.223,1.19
		c-0.037,2.22,0.063,4.476,0.572,6.589c0.764,3.179,1.313,6.419,2.427,9.521c0.767,2.135,1.637,4.227,2.449,6.342
		c1.022,2.663,2.533,5.103,4.019,7.493c1.273,2.049,2.71,4.05,4.226,5.967c2.159,2.731,4.647,5.156,7.06,7.641
		c0.807,0.831,1.833,1.537,2.77,2.284c1.546,1.231,3.154,2.384,4.727,3.582c1.357,1.033,2.905,1.83,4.412,2.651
		c1.297,0.707,2.728,1.187,3.972,1.968c2.269,1.426,4.797,2.133,7.291,2.974c2.072,0.698,4.143,1.354,6.282,1.849
		c2.809,0.651,5.611,1.171,8.5,1.155c0.216-0.002,0.495-0.096,0.591,0.235c-19.52,0-39.04-0.007-58.56,0.022
		c-0.822,0.002-0.984-0.161-0.983-0.982C0.247,109.2,0.24,89.04,0.24,68.88z"/>
	<path fill-rule="evenodd" clip-rule="evenodd" fill="#FEFEFE" d="M44.581,83.327c-0.572-1.239-1.521-2.036-2.671-2.722
		c-1.018-0.607-1.369-1.788-1.894-2.853c-0.826-1.676-0.453-3.664-1.583-5.208c-0.079-0.108-0.036-0.313-0.032-0.472
		c0.089-3.465-0.412-6.915-0.25-10.383c0.042-0.907,0.143-1.833,0.329-2.687c0.281-1.289,0.435-2.382,0.009-3.751
		c-0.572-1.844,0.717-3.569,1.326-5.296c0.181-0.513,0.357-1.041,0.494-1.567c0.282-1.084,0.71-2.087,1.594-2.797
		c1.047-0.841,1.48-2.203,2.549-2.985c1.155-0.846,2.097-1.93,3.325-2.706c1.069-0.676,1.968-1.627,3.153-2.146
		c1.193-0.523,2.418-0.961,3.647-1.385c1.685-0.582,3.475,0.052,5.132-0.953c0.867-0.525,2.278-0.48,3.479-0.393
		c0.565,0.042,1.195,0.2,1.671-0.362c0.166-0.195,0.49-0.176,0.625,0.046c0.538,0.889,1.44,0.67,2.121,0.527
		c2.066-0.435,4.052-0.051,6.072,0.242c0.591,0.086,0.795,0.34,0.968,0.792c0.174,0.451,0.487,0.948,0.947,0.893
		c1.98-0.235,3.118,1.327,4.544,2.158c1.174,0.685,2.325,1.525,3.281,2.627c1.296,1.493,2.181,3.193,3.126,4.882
		c0.713,1.275,0.892,2.727,1.381,4.05c0.439,1.188,0.723,2.454,1.214,3.642c0.792,1.914,1.637,3.962,1.587,6.165
		c-0.03,1.359-0.016,2.719-0.003,4.079c0.017,1.702-0.245,3.335-0.94,4.91c-0.447,1.015-0.415,2.185-0.432,3.235
		c-0.029,1.864-1.024,3.54-0.812,5.423c0.096,0.848-0.863,1.227-1.131,2.022c-0.229,0.682-0.947,1.299-1.411,1.978
		c-0.191,0.279-0.594,0.525-0.904,0.394c-0.202-0.085-0.376-0.54-0.35-0.809c0.11-1.119-0.103-2.305,0.617-3.319
		c0.1-0.142,0.071-0.383,0.077-0.578c0.069-2.502-0.104-5.003,0.219-7.507c0.291-2.249-0.086-4.473-0.803-6.616
		c-0.256-0.765-0.331-1.627-0.285-2.308c0.117-1.762-0.665-3.303-0.832-4.976c-0.092-0.914-0.707-1.874-1.341-2.264
		c-1.374-0.846-2.555-2.058-4.288-2.367c-1.236-0.22-2.174,0.203-3.257,0.603c-1.743,0.643-3.222,1.709-4.775,2.643
		c-0.779,0.469-1.609,0.945-2.39,1.322c-1.473,0.711-3.032,1.82-4.833,1.035c-1.718-0.748-3.447-1.465-5.056-2.478
		c-0.982-0.618-1.286-1.721-2.203-2.371c-0.451-0.319-0.947-0.742-1.401-0.845c-1.279-0.292-2.479-0.94-3.874-0.792
		c-2.623,0.278-4.657,1.419-5.863,3.803c-0.251,0.497-0.253,1.142-0.283,1.722c-0.042,0.844-0.08,1.627-0.662,2.362
		c-0.296,0.374-0.319,1.049-0.292,1.58c0.094,1.888-0.26,3.682-0.961,5.422c-0.014,0.036-0.014,0.079-0.013,0.119
		c0.125,2.656-0.482,5.39,0.312,7.949c0.447,1.444,0.328,2.996,0.943,4.303c0.554,1.178,0.148,2.66,1.296,3.634
		c0.22,0.186,0.066,0.812,0.085,1.234C44.781,83.263,44.681,83.295,44.581,83.327z"/>
	<path fill-rule="evenodd" clip-rule="evenodd" fill="#FEFEFE" d="M49.291,98.876c0.434-1.335,1-2.523,0.973-3.83
		c-0.017-0.822,0.45-1.479,0.662-2.221c0.425-1.49,1.883-1.745,3.045-2.351c1.34-0.697,2.811-1.036,4.204-1.586
		c0.971-0.383,1.664,0.429,2.496,0.645c1.154,0.298,2.059,1.139,3.373,1.244c1.984,0.16,3.421-0.981,5.015-1.708
		c0.555-0.252,1.283-0.397,1.464-0.211c0.562,0.582,1.349,0.273,1.878,0.674c1.369,1.035,3.076,1.477,4.407,2.598
		c0.425,0.357,0.663,0.714,0.819,1.203c0.575,1.811,1.242,3.614,1.311,5.527c0.063,1.804-0.323,3.552-1.008,5.245
		c-1.026,2.542-1.562,5.237-2.346,7.855c-0.163,0.545-0.495,1.017-0.538,1.635c-0.019,0.279-0.312,0.785-0.953,0.504
		c-0.435-0.189-1.09-0.411-1.214,0.519c-0.048,0.365-0.583,0.554-0.844,0.536c-0.729-0.049-1.148,0.369-1.658,0.745
		c-0.821,0.604-1.485,1.614-2.755,1.246c-0.771,1.323-2.057,0.803-3.166,1.075c-1.273,0.313-2.42-0.801-3.586,0.038
		c-0.112,0.08-0.478-0.343-0.627-0.634c-0.502-0.978-1.137-1.674-2.409-1.482c-1.154,0.173-1.46-1.128-2.319-1.51
		c-0.114-0.052-0.139-0.29-0.254-0.355c-2.813-1.595-2.9-1.421-3.501-4.706c-0.335-1.832-0.315-3.763-0.975-5.496
		C50.125,102.346,50.083,100.497,49.291,98.876z M64.417,101.513c0.359,0.652,0.602,1.423,1.331,1.791
		c0.765,0.386,1.386,0.949,2.032,1.496c0.568,0.481,1.176,1.015,1.859,1.243c1.783,0.596,3.124-0.381,3.79-2.238
		c0.601-1.676,2.018-3.06,1.756-5.043c-0.004-0.029,0.042-0.064,0.063-0.098c1.072-1.818,0.421-4.323-1.315-5.431
		c-2.257-1.441-4.673-0.859-7.006-0.519c-1.327,0.195-4.691,0.79-5.868,0.381c-0.698-0.242-1.385-0.532-2.112-0.613
		c-1.135-0.126-2.298-0.301-3.312,0.501c-2.038,1.613-2.466,3.943-2.835,6.303c-0.107,0.685-0.034,1.448,0.361,1.924
		c1.007,1.214,1.789,2.561,2.606,3.889c0.734,1.193,1.421,1.367,2.819,0.891c0.509-0.173,0.638-0.692,1.044-0.798
		C61.733,104.642,62.77,102.743,64.417,101.513z"/>
	<path fill-rule="evenodd" clip-rule="evenodd" fill="#FEFEFE" d="M73.146,12.734c-0.752,1.653-0.485,3.303-0.344,4.894
		c0.233,2.64,0.288,5.233-0.852,7.691c-0.293,0.632-0.117,1.242-0.207,1.857c-0.233,1.596-1.471,2.415-2.605,3.241
		c-0.33,0.24-0.695,0.521-1.064,0.749c-1.275,0.791-2.617,1.097-4.125,1.02c-1.366-0.07-2.746,0.172-4.113,0.117
		c-1.729-0.069-2.983-1.289-4.308-2.186c-1.117-0.757-2.395-1.106-3.504-1.807c-0.647-0.409-1.507-0.526-1.872-1.352
		c-0.325-0.733-0.5-1.723,0.091-2.068c0.686-0.4,1.703-0.383,2.558,0.074c0.905,0.484,1.807,0.995,2.761,1.362
		c0.902,0.347,1.568-0.127,1.272-0.915c-0.388-1.032-0.125-2.025-0.175-3.03c-0.02-0.408-0.239-1.16,0.037-1.191
		c0.708-0.079,0.684,0.859,0.677,1.149c-0.011,0.557,0.484,0.758,0.563,1.237c0.044,0.27,0.818,0.462,1.109-0.229
		c1.072-2.541,2.695-4.711,4.83-6.411c1.347-1.073,2.866-1.918,4.49-2.64c1.269-0.564,2.684-0.762,3.86-1.547
		C72.418,12.625,72.769,12.734,73.146,12.734z"/>
	<path fill-rule="evenodd" clip-rule="evenodd" fill="#FE0000" d="M64.417,101.513c-1.647,1.23-2.685,3.129-4.787,3.679
		c-0.406,0.105-0.535,0.625-1.044,0.798c-1.398,0.477-2.085,0.303-2.819-0.891c-0.817-1.328-1.599-2.675-2.606-3.889
		c-0.395-0.476-0.468-1.239-0.361-1.924c0.369-2.359,0.797-4.689,2.835-6.303c1.014-0.802,2.176-0.627,3.312-0.501
		c0.727,0.081,1.414,0.371,2.112,0.613c1.177,0.409,4.541-0.186,5.868-0.381c2.333-0.341,4.749-0.923,7.006,0.519
		c1.736,1.107,2.388,3.612,1.315,5.431c-0.021,0.033-0.066,0.068-0.063,0.098c0.262,1.983-1.155,3.367-1.756,5.043
		c-0.666,1.857-2.007,2.834-3.79,2.238c-0.684-0.229-1.291-0.762-1.859-1.243c-0.646-0.547-1.268-1.11-2.032-1.496
		C65.019,102.936,64.776,102.165,64.417,101.513z"/>
</g>
</svg>
