<?xml version="1.0" encoding="utf-8"?>
<!-- Generator: Adobe Illustrator 16.0.0, SVG Export Plug-In . SVG Version: 6.00 Build 0)  -->
<!DOCTYPE svg PUBLIC "-//W3C//DTD SVG 1.1 Tiny//EN" "http://www.w3.org/Graphics/SVG/1.1/DTD/svg11-tiny.dtd">
<svg version="1.1" baseProfile="tiny" id="Layer_1" xmlns="http://www.w3.org/2000/svg" xmlns:xlink="http://www.w3.org/1999/xlink"
	 x="0px" y="0px" width="2000px" height="2000px" viewBox="0 0 2000 2000" xml:space="preserve">
<g>
	<path fill-rule="evenodd" fill="#F69375" d="M939.228,5.025c42.971,0,85.943,0,128.913,0c2.023,4.253,6.023,3.543,9.551,3.611
		c37.911,0.736,74.91,5.901,112.324,13.514c42.771,8.701,84.901,18.573,126.563,31.354c36.579,11.22,72.646,24.216,106.952,40.585
		c49.723,23.726,97.651,50.797,143.541,82.015c44.807,30.48,87.475,63.491,126.011,100.857
		c40.313,39.09,78.576,80.378,112.011,126.389c29.034,39.955,56.309,80.506,79.605,123.916
		c17.053,31.777,32.838,63.777,44.384,98.37c7.171,21.484,18.234,42.048,24.939,64.201c6.259,20.677,10.591,42.132,17.822,62.162
		c10.844,30.036,13.402,61.433,19.928,92.012c7.845,36.766,10.258,74.829,8.586,112.789c-0.083,1.903,2.165,3.908,3.326,5.867
		c0,29.466,0,58.932,0,88.397c-4.99,2.581-3.679,7.385-3.586,11.385c1.191,51.546-8.231,101.721-17.934,152.045
		c-7.188,37.289-17.834,73.62-29.248,109.544c-7.761,24.423-19.317,48.199-28.322,72.187c-16.746,44.609-38.87,85.889-62.95,126.442
		c-16.867,28.406-34.242,56.558-52.517,84.074c-20.083,30.243-45.648,56.376-69.51,83.391
		c-35.63,40.336-76.345,76.543-119.185,109.039c-31.099,23.588-64.093,45.313-97.557,66.08
		c-42.888,26.614-88.333,48.088-133.96,68.554c-41.806,18.755-86.006,33.858-130.635,44.099
		c-36.489,8.37-73.021,18.328-111.181,21.021c-18.663,1.314-38.772-2.84-56.86,6.101c-57.703,0-115.408,0-173.112,0
		c-1.351-1.072-2.651-3.01-4.061-3.092c-38.991-2.299-77.504-5.192-116.151-13.965c-29.27-6.644-58.292-14.219-86.932-22.596
		c-55.58-16.262-109.981-36.246-161.09-63.998c-39.719-21.567-79.348-43.167-116.173-69.782
		c-41.525-30.011-82.573-60.63-119.61-95.953c-30.3-28.899-60.523-58.454-86.596-91.065
		c-30.811-38.535-55.704-81.579-82.247-123.309c-36-56.596-61.856-117.792-85.597-180.026
		c-20.269-53.128-30.399-109.186-42.913-164.33c-7.309-32.203-9.12-66.161-8.588-99.74c0.099-6.216,3.212-13.566-3.485-18.736
		c0-36.833,0-73.665,0-110.498c1.072-1.354,3.05-2.685,3.084-4.064c1.086-43.37,2.556-86.545,14.992-128.751
		c6.172-20.947,8.055-42.892,13.689-64.326c12.913-49.128,29.883-96.365,48.488-143.511c18.114-45.908,41.278-89.035,66.464-130.851
		c24.227-40.223,52.6-77.976,82.99-114.184c31.259-37.246,66.092-70.866,101.212-104.093
		c32.388-30.642,68.976-56.247,105.566-82.031c47.866-33.73,98.913-61.031,151.543-85.393
		c37.661-17.434,76.931-32.101,116.637-44.224c40.924-12.496,82.934-22.151,125.063-29.748c29.747-5.365,60.171-8.839,90.741-8.201
		C929.227,8.664,935.372,11.045,939.228,5.025z M688.115,1278.06c0-5.849,2.457-13.691-0.407-17.218
		c-16.24-20.021-14.683-45.782-23.074-68.261c-4.904-13.136,0.624-30.182-6.843-42.646c-7.649-12.769-10.178-25.496-9.433-39.36
		c2.279-42.477-0.594-84.472,8.9-127.542c9.428-42.776,16.436-86.795,24.065-130.343c0.696-3.973,0.642-7.555,3.293-11.677
		c16.123-25.083,33.244-42.9,66.631-50.348c33.146-7.396,59.371,0.5,87.499,10.884c14.956,5.521,22.529,19.283,32.548,30.858
		c19.805,22.873,48.059,34.106,75.604,44.866c12.882,5.03,24.533,15.282,40.422,11.442c29.098-7.032,55.117-20.592,80.557-35.778
		c29.658-17.706,58.566-36.94,90.987-49.433c13.433-5.176,26.773-7.55,42.341-3.922c25.638,5.975,43.875,23.43,64.139,37.075
		c9.375,6.313,18.425,19.666,19.638,32.977c2.323,25.553,14.42,49.031,12.815,75.825c-0.651,10.882,0.434,24.103,4.218,35.858
		c10.396,32.287,16.822,65.41,12.646,99.313c-4.813,39.073-2.746,78.185-3.534,117.284c-0.072,3.551-0.584,7.434-2.124,10.554
		c-7.926,16.067-7.983,33.412-8.469,50.621c-0.132,4.671,1.98,10.561,6.723,11.604c3.316,0.73,8.819-1.829,11.204-4.699
		c8.889-10.699,20.254-21.06,24.254-33.601c3.773-11.825,17.886-17.172,16.323-30.775c-3.327-28.955,12.033-55.017,12.546-83.865
		c0.277-15.669-0.054-32.977,6.616-48.375c8.616-19.89,13.969-40.453,14.046-62.211c0.089-25.166,0.29-50.337-0.073-75.497
		c-0.256-17.643-3.412-35.107-9.003-51.688c-8.06-23.9-19.271-46.778-26.664-70.852c-9.514-30.98-13.483-63.639-30.055-92.417
		c-13.952-24.232-25.797-49.551-45.513-70.302c-14.014-14.749-28.846-27.417-46.674-37.457
		c-23.948-13.488-41.852-38.258-73.451-37.264c-6.868,0.216-12.2-5.41-14.409-12.229c-2.937-9.075-8.779-12.798-18.204-14.411
		c-26.505-4.536-53.143-8.075-79.878-5.288c-10.225,1.066-22.751,7.066-30.203,1.996c-13.646-9.28-25.224-5.492-38.908-3.162
		c-15.441,2.631-31.581,2.318-47.211,3c-15.165,0.662-25.52,11.731-39.292,12c-31.293,0.609-60.77,6.706-90.568,17.468
		c-31.331,11.314-55.936,32.023-81.541,50.526c-29.802,21.535-54.128,50.292-77.876,78.945
		c-10.494,12.661-20.114,25.231-23.42,41.253c-4.581,22.205-15.778,41.801-22.946,62.914c-5.295,15.591-13.292,33.228-4.933,48.308
		c7.498,13.522,6.605,26.196,3.516,38.244c-6.095,23.769-8.338,47.612-9.489,71.929c-1.944,41.075,4.014,81.814,4,122.789
		c-0.005,13.059-0.708,25.626,5.729,38.846c5.76,11.829,7.05,26.616,9.819,40.156c5.635,27.558,13.427,56.583,38.396,73.518
		C659.895,1249.682,675.139,1260.701,688.115,1278.06z M758.002,1517.392c-4.271,12.38,6.998,20.216,8.5,30.761
		c2.299,16.13,2.617,33.915,8.629,47.923c13.719,31.97,13.933,66.081,19.037,98.889c4.487,28.849,21.177,46.163,40.044,61.69
		c6.854,5.642,21.943,6.18,27.946,15.621c8.117,12.766,19.226,16.368,32.333,15.146c10.667-0.994,18.292,3.705,22.175,11.59
		c8.417,17.093,20.218,24.058,38.733,18.166c11.15-3.548,20.497,4.851,33.773,2.356c18.029-3.387,37.516,3.652,49.689-16.757
		c18.675,4.556,28.656-9.83,40.884-19.017c7.771-5.84,14.693-11.969,25.722-11.672c4.45,0.12,11.811-2.727,13.059-8.582
		c2.603-12.197,11.09-10.194,18.212-7.563c10.561,3.898,14.551-3.222,15.474-9.814c2.849-20.388,12.078-38.845,17.283-58.48
		c9.302-35.104,21.867-69.714,33.513-104.304c17.948-53.303,5.189-106.752-14.411-158.122c-1.387-3.633-5.396-6.575-8.748-9.093
		c-16.745-12.573-36.897-19.914-53.662-31.52c-14.951-10.351-32.29-11.176-47.168-19.777c-4.635-2.679-12.658,0.735-19.798,3.715
		c-23.279,9.721-43.336,26.465-71.733,25.986c-29.205-0.493-49.263-20.832-75.382-26.942c-6.542-1.531-12.206-4.207-18.876-1.91
		c-21.885,7.535-44.15,13.999-65.063,24.211c-14.276,6.973-31.353,10.127-40.556,24.389
		C767.373,1445.647,773.361,1484.659,758.002,1517.392z M967.024,494.657c62.538,2.03,53.285-2.052,97.609-28.606
		c22.657-13.573,39.518-33.949,36.81-63.957c-0.31-3.442,0.397-7.55,2.092-10.516c19.81-34.685,16.57-73.114,15.085-110.189
		c-0.825-20.587-4.458-41.733-1.793-61.923c2.753-20.846,5.599-25.403-19.972-16.893c-43.271,14.402-83.636,32.601-118.992,60.785
		c-31.467,25.084-54.206,57.68-70.935,94.214c-2.225,4.861-3.097,8.778-9.487,8.431c-5.239-0.282-8.009-1.133-10.485-7.185
		c-3.834-9.368-8.467-18.389-10.554-28.392c-0.581-2.793-1.942-4.653-4.676-4.369c-1.311,0.137-3.676,2.344-3.484,2.973
		c5.696,18.574-5.375,38.091,3.308,56.506c2.768,5.868,2.16,12.891-0.863,17.769c-3.696,5.965-11.839,4.442-16.87,2.277
		c-14.952-6.435-29.182-14.532-43.855-21.643c-12.687-6.149-28.207-7.034-38.325-0.405c-10.957,7.178-7.28,23.324-1,33.601
		c6.044,9.894,18.761,13.459,28.923,19.348c16.965,9.833,35.712,15.485,52.403,26.677c20.441,13.708,39.494,33.091,66.246,33.688
		C936.861,497.263,955.592,493.837,967.024,494.657z"/>
	<path fill-rule="evenodd" fill="#FFFFFF" d="M2003.684,962.668c-1.161-1.958-3.409-3.964-3.326-5.867
		c1.672-37.96-0.741-76.022-8.586-112.789c-6.525-30.579-9.084-61.977-19.928-92.012c-7.231-20.03-11.563-41.485-17.822-62.162
		c-6.705-22.153-17.769-42.717-24.939-64.201c-11.546-34.593-27.331-66.593-44.384-98.37
		c-23.297-43.41-50.571-83.961-79.605-123.916c-33.435-46.01-71.697-87.299-112.011-126.389
		c-38.536-37.366-81.204-70.377-126.011-100.857c-45.89-31.218-93.818-58.29-143.541-82.015
		c-34.307-16.369-70.373-29.365-106.952-40.585c-41.661-12.782-83.792-22.653-126.563-31.354
		c-37.414-7.613-74.413-12.778-112.324-13.514c-3.527-0.068-7.527,0.642-9.551-3.611c306.938,0,613.873,0.099,920.811-0.354
		c12.612-0.018,15.104,2.475,15.086,15.087C2003.587,334.063,2003.684,648.364,2003.684,962.668z"/>
	<path fill-rule="evenodd" fill="#FFFFFF" d="M939.228,5.025c-3.855,6.02-10.001,3.638-15.073,3.532
		c-30.57-0.638-60.995,2.836-90.741,8.201c-42.129,7.597-84.139,17.252-125.063,29.748c-39.706,12.124-78.976,26.79-116.637,44.224
		c-52.63,24.362-103.678,51.663-151.543,85.393c-36.59,25.785-73.178,51.389-105.566,82.031
		c-35.12,33.227-69.953,66.847-101.212,104.093c-30.39,36.208-58.763,73.961-82.99,114.184
		c-25.186,41.816-48.35,84.943-66.464,130.851c-18.605,47.146-35.575,94.383-48.488,143.511
		c-5.634,21.434-7.518,43.379-13.689,64.326C9.325,857.325,7.855,900.501,6.769,943.871c-0.034,1.379-2.013,2.71-3.084,4.064
		c0-309.392,0.099-618.784-0.354-928.177C3.313,7.146,5.805,4.653,18.417,4.671C325.355,5.125,632.291,5.025,939.228,5.025z"/>
	<path fill-rule="evenodd" fill="#FFFFFF" d="M1090.24,2005.025c18.088-8.94,38.197-4.786,56.86-6.101
		c38.159-2.692,74.691-12.65,111.181-21.021c44.629-10.24,88.829-25.344,130.635-44.099c45.627-20.466,91.072-41.939,133.96-68.554
		c33.464-20.767,66.458-42.492,97.557-66.08c42.84-32.496,83.555-68.703,119.185-109.039c23.861-27.015,49.427-53.147,69.51-83.391
		c18.274-27.517,35.649-55.668,52.517-84.074c24.08-40.554,46.204-81.833,62.95-126.442c9.005-23.987,20.562-47.764,28.322-72.187
		c11.414-35.924,22.06-72.255,29.248-109.544c9.702-50.324,19.125-100.499,17.934-152.045c-0.093-4-1.404-8.804,3.586-11.385
		c0,313.075-0.097,626.151,0.354,939.227c0.018,12.612-2.474,15.105-15.086,15.087
		C1689.381,2004.924,1389.812,2005.025,1090.24,2005.025z"/>
	<path fill-rule="evenodd" fill="#FFFFFF" d="M3.685,1058.433c6.698,5.17,3.584,12.521,3.485,18.736
		c-0.532,33.579,1.279,67.537,8.588,99.74c12.514,55.145,22.645,111.202,42.913,164.33c23.741,62.234,49.598,123.431,85.597,180.026
		c26.543,41.729,51.436,84.773,82.247,123.309c26.072,32.611,56.295,62.166,86.596,91.065
		c37.038,35.323,78.085,65.942,119.61,95.953c36.825,26.615,76.454,48.215,116.173,69.782
		c51.109,27.752,105.51,47.736,161.09,63.998c28.64,8.377,57.662,15.952,86.932,22.596c38.647,8.772,77.161,11.666,116.151,13.965
		c1.41,0.082,2.71,2.02,4.061,3.092c-299.571,0-599.14-0.103-898.711,0.352c-12.612,0.021-15.105-2.473-15.085-15.085
		C3.784,1679.672,3.685,1369.053,3.685,1058.433z"/>
	<path fill-rule="evenodd" fill="#FFFFFF" d="M688.115,1278.06c-12.976-17.358-28.22-28.378-44.722-39.569
		c-24.968-16.935-32.761-45.96-38.396-73.518c-2.77-13.54-4.059-28.327-9.819-40.156c-6.437-13.22-5.734-25.787-5.729-38.846
		c0.015-40.975-5.944-81.714-4-122.789c1.151-24.317,3.394-48.161,9.489-71.929c3.089-12.048,3.981-24.722-3.516-38.244
		c-8.359-15.08-0.362-32.717,4.933-48.308c7.168-21.112,18.366-40.708,22.946-62.914c3.306-16.022,12.926-28.592,23.42-41.253
		c23.749-28.653,48.074-57.41,77.876-78.945c25.605-18.502,50.209-39.212,81.541-50.526c29.798-10.762,59.275-16.859,90.568-17.468
		c13.772-0.268,24.128-11.338,39.292-12c15.63-0.682,31.77-0.369,47.211-3c13.685-2.331,25.263-6.118,38.908,3.162
		c7.452,5.07,19.979-0.93,30.203-1.996c26.735-2.788,53.373,0.752,79.878,5.288c9.425,1.613,15.268,5.336,18.204,14.411
		c2.209,6.82,7.541,12.445,14.409,12.229c31.6-0.995,49.503,23.775,73.451,37.264c17.828,10.039,32.66,22.708,46.674,37.457
		c19.716,20.751,31.561,46.069,45.513,70.302c16.571,28.779,20.541,61.437,30.055,92.417c7.394,24.074,18.604,46.952,26.664,70.852
		c5.591,16.58,8.747,34.044,9.003,51.688c0.363,25.16,0.162,50.332,0.073,75.497c-0.077,21.758-5.43,42.321-14.046,62.211
		c-6.67,15.398-6.339,32.706-6.616,48.375c-0.513,28.849-15.873,54.91-12.546,83.865c1.563,13.604-12.55,18.95-16.323,30.775
		c-4,12.541-15.365,22.901-24.254,33.601c-2.385,2.87-7.888,5.43-11.204,4.699c-4.742-1.043-6.854-6.933-6.723-11.604
		c0.485-17.209,0.543-34.554,8.469-50.621c1.54-3.12,2.052-7.003,2.124-10.554c0.788-39.1-1.278-78.211,3.534-117.284
		c4.176-33.902-2.25-67.025-12.646-99.313c-3.784-11.755-4.869-24.976-4.218-35.858c1.604-26.793-10.492-50.272-12.815-75.825
		c-1.213-13.311-10.263-26.664-19.638-32.977c-20.264-13.645-38.501-31.101-64.139-37.075c-15.567-3.627-28.908-1.253-42.341,3.922
		c-32.421,12.492-61.329,31.727-90.987,49.433c-25.439,15.186-51.459,28.747-80.557,35.778c-15.89,3.84-27.54-6.412-40.422-11.442
		c-27.545-10.76-55.799-21.993-75.604-44.866c-10.019-11.575-17.592-25.337-32.548-30.858
		c-28.128-10.385-54.353-18.28-87.499-10.884c-33.387,7.447-50.508,25.265-66.631,50.348c-2.651,4.122-2.597,7.705-3.293,11.677
		c-7.629,43.548-14.638,87.567-24.065,130.343c-9.494,43.07-6.622,85.065-8.9,127.542c-0.745,13.864,1.784,26.592,9.433,39.36
		c7.467,12.464,1.938,29.51,6.843,42.646c8.392,22.479,6.834,48.24,23.074,68.261
		C690.571,1264.368,688.115,1272.211,688.115,1278.06z"/>
	<path fill-rule="evenodd" fill="#FFFFFF" d="M758.002,1517.392c15.359-32.732,9.37-71.744,29.608-103.109
		c9.203-14.262,26.279-17.416,40.556-24.389c20.912-10.212,43.177-16.676,65.063-24.211c6.67-2.297,12.334,0.379,18.876,1.91
		c26.119,6.11,46.177,26.449,75.382,26.942c28.397,0.479,48.454-16.266,71.733-25.986c7.14-2.979,15.163-6.394,19.798-3.715
		c14.878,8.602,32.217,9.427,47.168,19.777c16.765,11.605,36.917,18.946,53.662,31.52c3.353,2.518,7.361,5.46,8.748,9.093
		c19.601,51.37,32.359,104.819,14.411,158.122c-11.646,34.59-24.211,69.199-33.513,104.304
		c-5.205,19.636-14.435,38.093-17.283,58.48c-0.923,6.593-4.913,13.713-15.474,9.814c-7.122-2.632-15.609-4.635-18.212,7.563
		c-1.248,5.855-8.608,8.702-13.059,8.582c-11.028-0.297-17.95,5.832-25.722,11.672c-12.228,9.187-22.209,23.572-40.884,19.017
		c-12.174,20.409-31.66,13.37-49.689,16.757c-13.276,2.494-22.623-5.904-33.773-2.356c-18.515,5.892-30.316-1.073-38.733-18.166
		c-3.883-7.885-11.508-12.584-22.175-11.59c-13.107,1.222-24.216-2.381-32.333-15.146c-6.003-9.441-21.092-9.979-27.946-15.621
		c-18.868-15.527-35.558-32.842-40.044-61.69c-5.104-32.808-5.318-66.919-19.037-98.889c-6.012-14.008-6.33-31.793-8.629-47.923
		C765,1537.607,753.731,1529.771,758.002,1517.392z M987.144,1559.429c9.566,8.531,8.097,21.536,18.496,28.084
		c18.993,11.96,36.392,26.121,53.667,40.518c16.578,13.816,44.479,11.674,53.732-7.247c15.131-30.932,40.438-58.143,39.904-95.718
		c-0.05-3.549,1.2-6.547,3.124-9.951c14.969-26.482,3.596-67.028-21.803-82.919c-34.528-21.604-71.939-15.575-107.078-7.085
		c-26.816,6.48-53.407,4.822-79.92,8.297c-5.854,0.766-12.866-2.893-18.549-5.979c-30.178-16.395-67.416-8.866-90.903,15.802
		c-8.615,9.048-7.825,19.754-12.708,29.094c-16.549,31.659-23.545,62.967,0.094,95.125c13.274,18.059,23.927,38.023,36.415,56.691
		c6.399,9.566,15.706,15.783,27.792,11.456c16.134-5.774,30.304-15.909,45.087-24.189
		C955.856,1599.442,969.197,1577.264,987.144,1559.429z"/>
	<path fill-rule="evenodd" fill="#FFFFFF" d="M967.024,494.657c-11.433-0.82-30.164,2.606-48.813,2.19
		c-26.752-0.597-45.805-19.98-66.246-33.688c-16.691-11.192-35.438-16.844-52.403-26.677c-10.162-5.888-22.878-9.454-28.923-19.348
		c-6.28-10.276-9.957-26.423,1-33.601c10.118-6.629,25.639-5.744,38.325,0.405c14.673,7.111,28.903,15.208,43.855,21.643
		c5.03,2.166,13.174,3.688,16.87-2.277c3.023-4.877,3.631-11.9,0.863-17.769c-8.683-18.415,2.388-37.932-3.308-56.506
		c-0.192-0.629,2.173-2.836,3.484-2.973c2.734-0.284,4.095,1.576,4.676,4.369c2.086,10.003,6.719,19.024,10.554,28.392
		c2.476,6.052,5.246,6.903,10.485,7.185c6.39,0.347,7.262-3.57,9.487-8.431c16.729-36.534,39.467-69.129,70.935-94.214
		c35.356-28.184,75.72-46.382,118.992-60.785c25.57-8.51,22.725-3.953,19.972,16.893c-2.665,20.189,0.968,41.336,1.793,61.923
		c1.485,37.075,4.725,75.504-15.085,110.189c-1.694,2.966-2.401,7.073-2.092,10.516c2.708,30.007-14.152,50.384-36.81,63.957
		C1020.31,492.605,1029.563,496.688,967.024,494.657z"/>
	<path fill-rule="evenodd" fill="#F69375" d="M987.144,1559.429c-17.947,17.835-31.288,40.014-52.65,51.979
		c-14.783,8.28-28.953,18.415-45.087,24.189c-12.085,4.327-21.393-1.89-27.792-11.456c-12.488-18.668-23.141-38.633-36.415-56.691
		c-23.639-32.158-16.643-63.466-0.094-95.125c4.883-9.34,4.093-20.046,12.708-29.094c23.488-24.668,60.725-32.196,90.903-15.802
		c5.683,3.086,12.695,6.744,18.549,5.979c26.513-3.475,53.104-1.816,79.92-8.297c35.139-8.49,72.55-14.519,107.078,7.085
		c25.398,15.891,36.771,56.437,21.803,82.919c-1.924,3.404-3.174,6.402-3.124,9.951c0.533,37.575-24.773,64.786-39.904,95.718
		c-9.254,18.921-37.154,21.063-53.732,7.247c-17.275-14.396-34.674-28.558-53.667-40.518
		C995.241,1580.965,996.71,1567.96,987.144,1559.429z"/>
</g>
</svg>
